HIERARCHY
ROOT hip
{
	OFFSET 0.000000 0.000000 0.000000
	CHANNELS 6 Xposition Yposition Zposition Xrotation Zrotation Yrotation 
	JOINT abdomen
	{
		OFFSET 0.000000 3.422050 0.000000
		CHANNELS 3 Xrotation Zrotation Yrotation 
		JOINT chest
		{
			OFFSET 0.000000 8.486693 -0.684411
			CHANNELS 3 Xrotation Zrotation Yrotation 
			JOINT neck
			{
				OFFSET 0.000000 10.266162 -0.273764
				CHANNELS 3 Xrotation Zrotation Yrotation 
				JOINT head
				{
					OFFSET 0.000000 3.148285 0.000000
					CHANNELS 3 Xrotation Zrotation Yrotation 
					End Site
					{
						OFFSET 0.000000 3.148289 0.000000
					}
				}
			}
			JOINT lCollar
			{
				OFFSET 3.422053 6.707223 -0.821293
				CHANNELS 3 Yrotation Zrotation Xrotation 
				JOINT lShldr
				{
					OFFSET 3.285171 0.000000 0.000000
					CHANNELS 3 Zrotation Yrotation Xrotation 
					JOINT lForeArm
					{
						OFFSET 10.129278 0.000000 0.000000
						CHANNELS 3 Yrotation Zrotation Xrotation 
						JOINT lHand
						{
							OFFSET 8.486692 0.000000 0.000000
							CHANNELS 3 Zrotation Yrotation Xrotation 
							End Site
							{
								OFFSET 4.106464 0.000000 0.000000
							}
						}
					}
				}
			}
			JOINT rCollar
			{
				OFFSET -3.558935 6.707223 -0.821293
				CHANNELS 3 Yrotation Zrotation Xrotation 
				JOINT rShldr
				{
					OFFSET -3.148289 0.000000 0.000000
					CHANNELS 3 Zrotation Yrotation Xrotation 
					JOINT rForeArm
					{
						OFFSET -10.266159 0.000000 0.000000
						CHANNELS 3 Yrotation Zrotation Xrotation 
						JOINT rHand
						{
							OFFSET -8.349810 0.000000 0.000000
							CHANNELS 3 Zrotation Yrotation Xrotation 
							End Site
							{
								OFFSET -4.106464 0.000000 0.000000
							}
						}
					}
				}
			}
		}
	}
	JOINT lThigh
	{
		OFFSET 5.338403 -1.642589 1.368821
		CHANNELS 3 Xrotation Zrotation Yrotation 
		JOINT lShin
		{
			OFFSET -2.053232 -20.121670 0.000000
			CHANNELS 3 Xrotation Zrotation Yrotation 
			JOINT lFoot
			{
				OFFSET 0.000000 -19.300380 -1.231939
				CHANNELS 3 Xrotation Yrotation Zrotation 
				End Site
				{
					OFFSET 0.000000 -2.463878 4.653993
				}
			}
		}
	}
	JOINT rThigh
	{
		OFFSET -5.338403 -1.642589 1.368821
		CHANNELS 3 Xrotation Zrotation Yrotation 
		JOINT rShin
		{
			OFFSET 2.053232 -20.121670 0.000000
			CHANNELS 3 Xrotation Zrotation Yrotation 
			JOINT rFoot
			{
				OFFSET 0.000000 -19.300380 -1.231939
				CHANNELS 3 Xrotation Yrotation Zrotation 
				End Site
				{
					OFFSET 0.000000 -2.463878 4.653993
				}
			}
		}
	}
}
MOTION
Frames: 9
Frame Time: 0.022176
-3.487344 14.337721 23.552315 95.497101 0.000000 -0.000000 -6.676203 -0.070620 -0.323692 -3.103915 -0.685121 -1.690906 -36.227455 0.000000 0.000000 -15.001697 0.000000 0.000000 -25.649815 5.467654 -12.893542 7.349232 -20.098469 -1.209809 -43.775337 37.415760 7.067493 14.599403 1.927586 -10.873785 25.633148 -5.355311 -13.430053 -7.929744 20.836403 -1.353829 44.679764 -32.017479 7.645288 -14.359182 -3.637430 -10.477494 -100.799370 57.258324 0.198320 78.263496 7.830039 -12.098824 68.952415 -37.356991 42.671593 -100.862022 -57.552807 -0.430453 78.261360 -7.870464 12.093422 69.245995 37.219261 -43.156010 
-3.487344 14.385329 23.552315 95.998375 0.000000 -0.000000 -6.375974 -0.070636 -0.323649 -4.426329 -0.685201 -1.690926 -35.952244 0.000000 0.000000 -15.001697 0.000000 0.000000 -25.625629 5.075901 -12.729608 7.349232 -20.098469 -1.209809 -44.043087 37.523426 7.230848 14.325562 1.889279 -10.710326 25.582951 -4.936422 -13.254375 -7.936940 20.858727 -1.355133 44.933231 -32.113586 7.780411 -14.106251 -3.588155 -10.313704 -101.274979 56.764503 -0.196112 78.263496 7.830039 -12.098824 68.554886 -37.477192 41.871365 -101.337372 -57.044476 -0.022170 78.261360 -7.870464 12.093422 68.833694 37.348862 -42.332653 
-3.487345 14.432939 23.552315 96.499580 0.000000 -0.000000 -6.075755 -0.070652 -0.323606 -5.748036 -0.685280 -1.690944 -35.677059 0.000000 0.000000 -15.001697 0.000000 0.000000 -25.600340 4.684241 -12.565616 7.349232 -20.098469 -1.209809 -44.311596 37.630482 7.395066 14.051624 1.851753 -10.546696 25.531483 -4.517713 -13.078441 -7.944141 20.881058 -1.356442 45.187233 -32.209187 7.916176 -13.853209 -3.539605 -10.149715 -101.738251 56.268990 -0.577998 78.263496 7.830039 -12.098824 68.154701 -37.592945 41.068935 -101.799706 -56.534420 0.372904 78.261360 -7.870464 12.093422 68.418442 37.473705 -41.506851 
-3.487345 14.480547 23.552315 97.000740 0.000000 -0.000000 -5.775546 -0.070668 -0.323564 -7.068692 -0.685360 -1.690961 -35.401867 0.000000 0.000000 -15.001697 0.000000 0.000000 -25.573933 4.292686 -12.401547 7.349232 -20.098469 -1.209809 -44.580879 37.736927 7.560153 13.777606 1.815013 -10.382901 25.478773 -4.099205 -12.902250 -7.951339 20.903381 -1.357753 45.441734 -32.304256 8.052574 -13.600046 -3.491779 -9.985525 -102.189644 55.771881 -0.947815 78.263496 7.830039 -12.098824 67.751984 -37.704220 40.264439 -102.249542 -56.022751 0.755306 78.261360 -7.870464 12.093422 68.000359 37.593742 -40.678738 
-3.487345 14.528156 23.552315 97.501846 0.000000 -0.000000 -5.475354 -0.070684 -0.323521 -8.387937 -0.685441 -1.690975 -35.126701 0.000000 0.000000 -15.001697 0.000000 0.000000 -25.546423 3.901253 -12.237397 7.349232 -20.098469 -1.209809 -44.850914 37.842743 7.726097 13.503502 1.779058 -10.218944 25.424805 -3.680915 -12.725783 -7.958543 20.925707 -1.359067 45.696789 -32.398827 8.189613 -13.346782 -3.444682 -9.821147 -102.629631 55.273262 -1.306028 78.263496 7.830039 -12.098824 67.346832 -37.810970 39.457993 -102.687340 -55.509533 1.125522 78.261360 -7.870464 12.093422 67.579590 37.708950 -39.848473 
-3.487345 14.575766 23.552315 98.002831 0.000000 -0.000000 -5.175184 -0.070700 -0.323479 -9.705435 -0.685521 -1.690988 -34.851540 0.000000 0.000000 -15.001697 0.000000 0.000000 -25.517809 3.509954 -12.073157 7.349232 -20.098469 -1.209809 -45.121731 37.947948 7.892906 13.229328 1.743891 -10.054834 25.369574 -3.262859 -12.549023 -7.965745 20.948034 -1.360385 45.952362 -32.492874 8.327291 -13.093413 -3.398314 -9.656582 -103.058693 54.773258 -1.653085 78.263496 7.830039 -12.098824 66.939362 -37.913158 38.649723 -103.113670 -54.994907 1.484066 78.261360 -7.870464 12.093422 67.156250 37.819260 -39.016163 
-3.487345 14.623374 23.552315 98.503700 0.000000 -0.000000 -4.875038 -0.070717 -0.323437 -11.020840 -0.685602 -1.690999 -34.576397 0.000000 0.000000 -15.001697 0.000000 0.000000 -25.488085 3.118803 -11.908813 7.349232 -20.098469 -1.209809 -45.393291 38.052513 8.060575 12.955080 1.709512 -9.890575 25.313084 -2.845055 -12.371964 -7.972951 20.970358 -1.361706 46.208450 -32.586391 8.465597 -12.839942 -3.352677 -9.491833 -103.477188 54.271938 -1.989386 78.263496 7.830039 -12.098824 66.529716 -38.010765 37.839775 -103.528893 -54.478924 1.831362 78.261360 -7.870464 12.093422 66.730484 37.924652 -38.181976 
-3.487345 14.670983 23.552315 99.004425 0.000001 -0.000000 -4.574921 -0.070734 -0.323394 -12.333805 -0.685683 -1.691008 -34.301289 0.000000 0.000000 -15.001697 0.000000 0.000000 -25.457253 2.727814 -11.744354 7.349232 -20.098469 -1.209809 -45.665619 38.156445 8.229102 12.680774 1.675923 -9.726176 25.255337 -2.427522 -12.194592 -7.980156 20.992682 -1.363030 46.465057 -32.679382 8.604536 -12.586383 -3.307772 -9.326908 -103.885536 53.769379 -2.315344 78.263496 7.830039 -12.098824 66.118011 -38.103752 37.028275 -103.933510 -53.961704 2.167868 78.261360 -7.870464 12.093422 66.302429 38.025093 -37.346054 
-3.487345 14.718592 23.552315 99.505013 0.000001 -0.000000 -4.274836 -0.070751 -0.323352 -13.644004 -0.685764 -1.691015 -34.026199 0.000000 0.000000 -15.001697 0.000000 0.000000 -25.425320 2.337003 -11.579772 7.349232 -20.098469 -1.209809 -45.938709 38.259739 8.398485 12.406409 1.643126 -9.561639 25.196331 -2.010276 -12.016897 -7.987367 21.015013 -1.364357 46.722191 -32.771843 8.744104 -12.332735 -3.263602 -9.161815 -104.284134 53.265675 -2.631341 78.263496 7.830039 -12.098824 65.704376 -38.192078 36.215347 -104.327934 -53.443352 2.493987 78.261360 -7.870464 12.093422 65.872223 38.120548 -36.508541 
